<svg width="41" height="40" viewBox="0 0 41 40" fill="none" xmlns="http://www.w3.org/2000/svg">
<g clip-path="url(#clip0_2_2325)">
<path d="M34.5542 31.5172C34.3564 32.4332 33.7189 33.0252 32.9299 33.0252H15.9659C15.8829 33.0252 15.8008 33.0085 15.7244 32.9759C15.648 32.9434 15.579 32.8958 15.5215 32.8359C15.429 32.748 15.366 32.6335 15.3414 32.5082L13.1738 21.5295C13.1565 21.4394 13.0585 21.0068 12.759 21.0068H11.5469C11.4756 21.442 11.0979 21.7756 10.6428 21.7756H7.04033C6.53455 21.7756 6.12305 21.3641 6.12305 20.8583V19.9202C6.12305 19.4144 6.53455 19.0029 7.04033 19.0029H10.6428C11.0979 19.0029 11.4756 19.3364 11.5469 19.7716H12.759C13.5705 19.7716 14.2092 20.3691 14.3864 21.2937L16.4587 31.79H32.9298C33.2097 31.79 33.3197 31.3817 33.3467 31.2565C33.3824 31.0976 33.4795 30.9592 33.6167 30.8714C33.754 30.7837 33.9204 30.7538 34.0797 30.7882C34.2389 30.8226 34.3782 30.9185 34.467 31.055C34.5559 31.1916 34.5872 31.3577 34.5541 31.5173L34.5542 31.5172ZM29.2255 34.4632C27.889 34.4632 26.8016 35.5505 26.8016 36.8871C26.8016 38.2237 27.889 39.311 29.2255 39.311C30.562 39.311 31.6494 38.2237 31.6494 36.8871C31.6494 35.5505 30.562 34.4632 29.2255 34.4632ZM14.9374 10.4445C14.4896 8.4317 14.9992 6.37879 16.3742 4.66405C18.2048 2.3803 21.3084 1.01685 24.6762 1.01685C28.1118 1.01685 31.2495 2.42276 33.0692 4.77832C34.4327 6.54401 34.8905 8.64093 34.3578 10.6838C34.3345 10.7723 34.2914 10.8544 34.2319 10.9239L34.2327 10.9247L28.2384 18.0747H30.6048C31.0889 18.0747 31.4834 18.4692 31.4834 18.9541V21.1884C31.4834 21.6077 31.1885 21.9589 30.7955 22.0462V29.3861C30.7955 29.8973 30.3794 30.3126 29.869 30.3126H19.4841C18.973 30.3126 18.5576 29.8973 18.5576 29.3861V22.0462C18.1646 21.9589 17.8697 21.6077 17.8697 21.1884V18.9541C17.8697 18.4692 18.2634 18.0747 18.7483 18.0747H21.1579L15.0648 10.7039V10.7031C15.0024 10.6283 14.9587 10.5396 14.9374 10.4445ZM22.641 22.067H19.7929V29.0773H22.641V22.067ZM26.7113 22.067V29.0773H29.5602V22.067H26.7113ZM29.8737 10.7178C29.8698 10.7247 29.8644 10.7317 29.8598 10.7386L26.8642 17.7914L33.0244 10.4437C32.7859 10.1202 32.3566 9.90865 31.8162 9.86232C31.1391 9.80365 30.2412 10.0468 29.8737 10.7178ZM25.2938 18.0747H25.4019L28.6461 10.4367C28.4291 10.1534 27.9582 9.94879 27.3714 9.89861C26.4928 9.82295 25.6513 10.1086 25.2938 10.5873V18.0747ZM23.8763 22.067V29.0773H25.476V22.067H23.8763ZM20.68 10.5132L23.9288 18.0616L23.8972 18.0747H24.0585V10.5302C23.891 10.2051 23.3899 9.96501 22.7445 9.90942C21.9137 9.83839 21.0907 10.0901 20.68 10.5132ZM16.3387 10.3063L22.404 17.6431L19.4455 10.7695C19.4208 10.7293 19.3984 10.6877 19.3829 10.6413C19.1629 9.99743 18.3128 9.87622 18.0573 9.85383C17.3918 9.7967 16.7286 9.98277 16.3387 10.3063ZM20.1274 34.4632C18.7909 34.4632 17.7035 35.5505 17.7035 36.8871C17.7035 38.2237 18.7909 39.311 20.1274 39.311C21.4639 39.311 22.5513 38.2237 22.5513 36.8871C22.5513 35.5505 21.4639 34.4632 20.1274 34.4632Z" fill="#313131"/>
</g>
<defs>
<clipPath id="clip0_2_2325">
<rect width="39.5294" height="39.5294" fill="white" transform="translate(0.587891 0.411621)"/>
</clipPath>
</defs>
</svg>
