<svg width="40" height="40" viewBox="0 0 40 40" fill="none" xmlns="http://www.w3.org/2000/svg">
<path fill-rule="evenodd" clip-rule="evenodd" d="M9.09805 10.7528C12.2818 10.7528 14.8621 13.333 14.8621 16.5168C14.8621 19.7006 12.2818 22.2809 9.09805 22.2809C5.91433 22.2809 3.33398 19.7006 3.33398 16.5168C3.33398 13.333 5.91433 10.7528 9.09805 10.7528ZM12.5178 19.6862C13.289 18.8545 13.7604 17.7407 13.7604 16.5168C13.7604 13.9416 11.6733 11.8544 9.09805 11.8544C6.5228 11.8544 4.43567 13.9416 4.43567 16.5168C4.43567 17.7407 4.90712 18.8545 5.67836 19.6862C6.18775 18.2904 7.52685 17.2937 9.09805 17.2937C10.6693 17.2937 12.0084 18.2904 12.5178 19.6862ZM9.09805 17.0201C8.08512 17.0201 7.257 16.1919 7.257 15.179C7.257 14.1661 8.08512 13.3379 9.09805 13.3379C10.111 13.3379 10.9392 14.1661 10.9392 15.179C10.9392 16.1919 10.111 17.0201 9.09805 17.0201ZM21.4482 5.03146C21.9084 5.14075 22.3481 5.32295 22.7506 5.57115L23.5971 5.19479L24.5941 6.19181L24.2192 7.03824C24.4676 7.44121 24.6498 7.88142 24.7589 8.34208L25.6224 8.67438V10.0847L24.7589 10.417C24.6495 10.8772 24.4663 11.3161 24.2192 11.7194L24.5941 12.5659L23.5971 13.5629L22.7506 13.188C22.3482 13.4364 21.9085 13.6186 21.4482 13.7277L21.1159 14.5912H19.7056L19.3733 13.7277C18.9117 13.6183 18.4728 13.4351 18.0695 13.188L17.223 13.5629L16.226 12.5659L16.6024 11.7194C16.3538 11.3175 16.172 10.8772 16.0612 10.417L15.1977 10.0847V8.67438L16.0612 8.34208C16.1714 7.88154 16.354 7.44144 16.6024 7.03824L16.226 6.19181L17.223 5.19479L18.0695 5.57115C18.472 5.32295 18.9117 5.14075 19.3718 5.03146L19.7056 4.1665H21.1159L21.4482 5.03146ZM20.41 6.91899C19.0508 6.91899 17.9502 8.01963 17.9502 9.37883C17.9502 10.738 19.0508 11.8401 20.41 11.8401C21.7692 11.8401 22.8713 10.738 22.8713 9.37883C22.8713 8.01963 21.7692 6.91899 20.41 6.91899ZM31.7229 21.7301C28.8522 21.7301 26.5106 19.3885 26.5106 16.5177C26.5106 13.647 28.8522 11.3054 31.7229 11.3054C34.5937 11.3054 36.9353 13.647 36.9353 16.5177C36.9353 19.3885 34.5937 21.7301 31.7229 21.7301ZM31.1721 13.4738C31.0691 13.4986 30.9686 13.5302 30.8715 13.5684C30.1517 13.8516 29.6341 14.4737 29.6755 15.3182C29.7275 16.4185 30.7117 16.8911 31.6396 17.0423C31.8799 17.0819 32.1378 17.1383 32.3647 17.2414C32.5989 17.3477 32.8031 17.5079 32.8386 17.8038L32.8387 17.8044C32.8658 18.0282 32.7604 18.1869 32.6065 18.2931C32.3751 18.4526 32.0606 18.5216 31.7784 18.528H31.7772C31.2584 18.5408 30.7182 18.3184 30.5862 17.7879C30.5509 17.6462 30.4607 17.5243 30.3355 17.449C30.2103 17.3737 30.0604 17.3512 29.9186 17.3864C29.7769 17.4218 29.655 17.5119 29.5797 17.6371C29.5044 17.7623 29.4819 17.9122 29.5171 18.054C29.7241 18.8856 30.3927 19.4037 31.1721 19.5708V19.8168C31.1721 20.1208 31.4189 20.3676 31.7229 20.3676C32.0269 20.3676 32.2738 20.1208 32.2738 19.8168V19.579C33.1967 19.4017 34.0645 18.7632 33.9324 17.6721C33.7971 16.5471 32.764 16.1109 31.8177 15.955L31.8167 15.9549C31.5949 15.9188 31.3597 15.8637 31.1565 15.7645C30.958 15.6675 30.7881 15.5231 30.776 15.2662L30.7759 15.2648C30.7594 14.9315 30.9908 14.7053 31.2748 14.5936C31.7808 14.3945 32.4866 14.5195 32.7505 15.1484C32.8681 15.4287 33.1913 15.5608 33.4716 15.4432C33.6062 15.3866 33.7129 15.2788 33.7682 15.1436C33.8235 15.0084 33.8228 14.8568 33.7663 14.7221C33.4694 14.0145 32.8966 13.6112 32.2738 13.4676V13.2204C32.2738 12.9164 32.0269 12.6696 31.7229 12.6696C31.4189 12.6696 31.1721 12.9164 31.1721 13.2204V13.4738ZM6.90681 28.9397L6.91224 28.9492L9.95137 34.3193L9.95619 34.3278L10.6241 35.508C10.6832 35.6134 10.6469 35.7482 10.542 35.8075L10.5413 35.8078L9.07615 36.6382C8.97081 36.6973 8.83612 36.6609 8.77684 36.5561L8.77663 36.5557L4.4641 28.9355L4.4639 28.9352C4.40447 28.8303 4.44076 28.6962 4.54515 28.6373L4.54563 28.637L6.01334 27.806C6.11841 27.7468 6.25289 27.7851 6.31286 27.8901L6.90681 28.9397ZM5.7897 28.6761C5.45686 28.7236 5.22702 29.0327 5.2746 29.3655C5.3241 29.6983 5.63319 29.9301 5.96597 29.8806C6.29882 29.8331 6.52865 29.522 6.48107 29.1892C6.43157 28.8564 6.12248 28.6265 5.7897 28.6761ZM10.639 33.2974L8.13704 28.8767L11.959 26.6638C12.8406 26.154 13.7265 25.7493 14.6947 26.0637L14.6949 26.0638C15.9535 26.4718 18.0053 27.3414 20.1018 27.7266C20.5768 27.8963 20.884 28.37 20.7523 28.8593L20.7523 28.8596C20.6222 29.3442 20.2069 29.5762 19.6413 29.5141C18.4909 29.2762 17.4226 28.9269 16.2375 28.6084C15.9439 28.5295 15.6415 28.7038 15.5626 28.9974C15.4837 29.291 15.658 29.5934 15.9516 29.6724C17.1666 29.9989 19.4578 30.6009 19.4654 30.6021L20.1161 30.708C21.0812 30.8616 21.9668 30.7253 22.8118 30.2328L28.0406 27.1876C29.2428 26.4872 30.0705 26.3401 30.61 26.5646C31.0201 26.7352 31.1819 27.1461 31.1716 27.534C31.1629 27.8615 31.0406 28.1913 30.7838 28.3494L21.2952 34.1915L21.2947 34.1917C20.5564 34.6475 19.747 34.7503 18.909 34.5268L12.0268 32.6824C11.9569 32.6637 11.884 32.6589 11.8123 32.6683C11.7406 32.6778 11.6714 32.7013 11.6088 32.7374L10.639 33.2974ZM20.9609 20.848C20.9609 21.152 20.714 21.3988 20.41 21.3988C20.106 21.3988 19.8592 21.152 19.8592 20.848V17.1011C19.8592 16.7971 20.106 16.5503 20.41 16.5503C20.714 16.5503 20.9609 16.7971 20.9609 17.1011V20.848ZM22.4119 22.8979C22.2974 22.9885 22.1515 23.0299 22.0064 23.013C21.8613 22.9961 21.7289 22.9222 21.6382 22.8077C21.5476 22.6931 21.5062 22.5473 21.5231 22.4022C21.5401 22.2571 21.6139 22.1247 21.7284 22.034L24.9481 19.4866C25.0627 19.396 25.2085 19.3546 25.3536 19.3715C25.4987 19.3884 25.6311 19.4622 25.7218 19.5768C25.8124 19.6913 25.8538 19.8372 25.8369 19.9823C25.82 20.1274 25.7461 20.2598 25.6316 20.3505L22.4119 22.8979ZM19.0917 22.034C19.2062 22.1247 19.28 22.2571 19.297 22.4022C19.3139 22.5473 19.2725 22.6931 19.1819 22.8077C19.0912 22.9222 18.9588 22.9961 18.8137 23.013C18.6686 23.0299 18.5227 22.9885 18.4082 22.8979L15.1885 20.3505C15.074 20.2598 15.0001 20.1274 14.9832 19.9823C14.9663 19.8372 15.0077 19.6913 15.0983 19.5768C15.189 19.4622 15.3214 19.3884 15.4665 19.3715C15.6116 19.3546 15.7574 19.396 15.872 19.4866L19.0917 22.034Z" fill="#313131"/>
</svg>
