<svg width="20" height="20" viewBox="0 0 20 20" fill="none" xmlns="http://www.w3.org/2000/svg">
<circle cx="10" cy="10" r="9.58333" stroke="#E5005F" stroke-width="0.833333"/>
<g clip-path="url(#clip0_2_3933)">
<path fill-rule="evenodd" clip-rule="evenodd" d="M10.0001 6.20915C11.11 6.20915 12.0099 7.10897 12.0099 8.21892C12.0099 9.32889 11.11 10.2287 10.0001 10.2287C8.8901 10.2287 7.99033 9.32889 7.99033 8.21892C7.99033 7.10899 8.8901 6.20915 10.0001 6.20915ZM10.1824 11.9093V15.6809L13.9027 14.2343V11.8757L10.9937 13.0069C10.9091 13.0396 10.815 13.0046 10.771 12.9284L10.1824 11.9093ZM9.81778 15.6808V11.9093L9.22935 12.9285C9.20692 12.9672 9.17102 12.9963 9.1285 13.0102C9.08599 13.0241 9.03984 13.0218 8.99888 13.0039L6.09748 11.8757V14.2343L9.81778 15.6808ZM14.0054 9.86738L10.2635 11.3223L11.0078 12.6115L14.7497 11.1565L14.0054 9.86738ZM9.73666 11.3223L5.99476 9.86738L5.25049 11.1565L8.99241 12.6115L9.73666 11.3223ZM10.0001 10.5933C9.00196 10.5933 8.1477 9.9774 7.79656 9.10493L6.41654 9.6415L10.0001 11.0349L13.5836 9.6415L12.2036 9.10493C11.8525 9.97737 10.9982 10.5933 10.0001 10.5933ZM13.6694 8.08462C13.7701 8.08462 13.8517 8.16624 13.8517 8.26691C13.8517 8.36758 13.7701 8.4492 13.6694 8.4492H12.8157C12.7673 8.4492 12.7209 8.42999 12.6868 8.39581C12.6526 8.36162 12.6334 8.31525 12.6334 8.26691C12.6334 8.21856 12.6526 8.17219 12.6868 8.13801C12.7209 8.10382 12.7673 8.08462 12.8157 8.08462H13.6694ZM9.81778 4.50163C9.81778 4.45328 9.83699 4.40691 9.87117 4.37273C9.90536 4.33854 9.95173 4.31934 10.0001 4.31934C10.0484 4.31934 10.0948 4.33854 10.129 4.37273C10.1632 4.40691 10.1824 4.45328 10.1824 4.50163V5.35541C10.1824 5.40376 10.1632 5.45013 10.129 5.48431C10.0948 5.5185 10.0484 5.53771 10.0001 5.53771C9.95173 5.53771 9.90536 5.5185 9.87117 5.48431C9.83699 5.45013 9.81778 5.40376 9.81778 5.35541V4.50163ZM7.97762 5.06607C7.95429 5.02437 7.94835 4.97516 7.96107 4.92911C7.9738 4.88305 8.00417 4.84387 8.0456 4.82007C8.08703 4.79627 8.13617 4.78976 8.18236 4.80195C8.22856 4.81415 8.26809 4.84406 8.29237 4.88521L8.71925 5.62461C8.74257 5.66631 8.74852 5.71552 8.73579 5.76158C8.72306 5.80763 8.69269 5.84681 8.65127 5.87061C8.60984 5.89442 8.5607 5.90093 8.5145 5.88873C8.4683 5.87654 8.42878 5.84662 8.4045 5.80547L7.97762 5.06607ZM6.66566 6.4761C6.62431 6.45173 6.59427 6.41201 6.58208 6.36558C6.56989 6.31916 6.57656 6.2698 6.60061 6.22826C6.62467 6.18673 6.66417 6.15639 6.7105 6.14386C6.75684 6.13133 6.80624 6.13762 6.84796 6.16137L7.58733 6.58825C7.62817 6.61287 7.65771 6.65254 7.66958 6.69873C7.68146 6.74491 7.67472 6.79392 7.65082 6.83518C7.62692 6.87645 7.58777 6.90667 7.5418 6.91935C7.49583 6.93203 7.44672 6.92615 7.40504 6.90298L6.66566 6.4761ZM6.23479 8.35325C6.18645 8.35325 6.14008 8.33404 6.1059 8.29985C6.07171 8.26567 6.0525 8.2193 6.0525 8.17095C6.0525 8.12261 6.07171 8.07624 6.1059 8.04205C6.14008 8.00787 6.18645 7.98866 6.23479 7.98866H7.08856C7.18925 7.98866 7.27085 8.07028 7.27085 8.17095C7.27085 8.27162 7.18925 8.35325 7.08856 8.35325H6.23479ZM11.6949 4.93318C11.7189 4.89145 11.7585 4.86095 11.805 4.8484C11.8515 4.83584 11.901 4.84226 11.9428 4.86623C11.9845 4.89022 12.015 4.9298 12.0275 4.97627C12.0401 5.02274 12.0337 5.0723 12.0097 5.11404L11.5828 5.85343C11.5588 5.89517 11.5193 5.92567 11.4728 5.93823C11.4263 5.95078 11.3768 5.94436 11.335 5.92038C11.2933 5.8964 11.2628 5.85682 11.2502 5.81034C11.2377 5.76387 11.2441 5.71432 11.2681 5.67258L11.6949 4.93318ZM13.1043 6.24445C13.146 6.2207 13.1954 6.21441 13.2417 6.22694C13.288 6.23947 13.3275 6.26981 13.3516 6.31134C13.3756 6.35288 13.3823 6.40224 13.3701 6.44866C13.3579 6.49509 13.3279 6.53481 13.2865 6.55918L12.5471 6.98606C12.4603 7.03639 12.349 7.00673 12.2986 6.91984C12.2483 6.83296 12.278 6.72167 12.3649 6.67133L13.1043 6.24445ZM10.7611 7.3024L9.57053 8.49295L9.16424 7.98167C9.0643 7.85593 8.88137 7.83506 8.75566 7.93498C8.62992 8.03494 8.60903 8.21785 8.70899 8.34358L9.30686 9.09597C9.41025 9.24406 9.62314 9.26432 9.75198 9.13546L11.173 7.71443C11.2868 7.60065 11.2868 7.4162 11.173 7.3024C11.0593 7.18865 10.8748 7.18865 10.7611 7.3024Z" fill="#E5005F"/>
</g>
<defs>
<clipPath id="clip0_2_3933">
<rect width="11.6667" height="11.6667" fill="white" transform="translate(4.16675 4.16663)"/>
</clipPath>
</defs>
</svg>
