<svg width="164" height="164" viewBox="0 0 164 164" fill="none" xmlns="http://www.w3.org/2000/svg">
<path d="M56.1416 4.33228C54.738 4.80998 52.0905 7.45328 50.9103 9.52333C50.4318 10.3832 49.3791 12.6125 48.5817 14.4596C47.8161 16.3067 46.8273 18.5679 46.3807 19.4914C45.966 20.415 45.6151 21.243 45.6151 21.3385C45.6151 21.4022 45.041 22.4213 44.3073 23.536C41.6279 27.8035 39.4269 28.6952 29.5065 29.5869C19.65 30.4786 16.6834 31.5614 14.9609 34.9372C13.5574 37.6123 13.7807 40.6696 16.0774 50.5103C18.3741 60.4784 17.5766 62.4529 7.91143 70.6694C4.43452 73.5993 1.62748 76.6566 0.766223 78.3764C0.319647 79.2681 0.160156 80.2872 0.160156 82.1343C0.160156 84.5228 0.223953 84.7776 1.30849 86.4336C2.77581 88.5992 4.14744 90.0323 8.358 93.631C17.5447 101.497 18.3422 103.567 16.0774 113.44C14.004 122.421 13.685 124.937 14.4187 127.771C14.9609 129.968 17.0981 131.943 19.8414 132.866C21.9467 133.535 23.3821 133.758 32.2179 134.65C34.674 134.905 37.4811 135.414 38.757 135.828C42.5529 137.07 44.5944 139.714 47.6885 147.42C51.3249 156.497 54.3553 160 58.5658 160C60.5435 160 63.7014 158.726 67.9439 156.178C70.3044 154.777 73.7494 152.866 75.5995 151.943C78.8531 150.35 79.0126 150.287 81.6602 150.319C84.1163 150.319 84.5948 150.414 86.8915 151.497C88.2631 152.134 91.4529 153.917 94.0048 155.414C101.182 159.713 103.957 160.573 107.147 159.522C110.018 158.567 113.048 154.299 115.568 147.58C115.983 146.433 116.908 144.363 117.641 142.962C121.118 136.083 122.809 135.255 135.409 134.204C140.162 133.79 142.969 133.217 144.914 132.261C149.603 129.905 150.209 126.242 147.689 115.414C146.031 108.312 145.808 104.714 146.924 102.357C147.881 100.319 149.922 97.9941 153.431 95.0005C157.961 91.147 160.704 88.3763 162.012 86.4336C163.096 84.7457 163.16 84.5547 163.16 81.9751C163.128 79.6821 163.033 79.077 162.331 77.9305C161.246 76.0834 159.205 74.0133 154.803 70.1599C145.361 61.9115 144.851 60.3829 147.689 48.5358C149.508 40.9562 149.667 37.4531 148.359 34.9053C146.669 31.6251 143.543 30.4467 134.101 29.6187C127.881 29.0455 127.083 28.9181 124.882 28.2493C122.745 27.5805 121.182 26.5614 120.034 25.0646C118.885 23.6315 116.653 19.2685 115.568 16.3704C114.228 12.8036 111.9 8.40869 110.464 6.81635C108.678 4.80998 106.381 3.82274 104.148 4.04565C101.724 4.30043 99.4275 5.28769 94.7065 8.12207C89.2838 11.4023 85.8388 13.0902 83.4784 13.5679C80.0971 14.2685 77.2582 13.2813 69.6026 8.66347C62.6488 4.49152 59.1081 3.34503 56.1416 4.33228ZM112.761 58.058C114.388 58.7905 116.174 60.5102 117.131 62.3255C118.184 64.2682 118.184 68.472 117.099 70.5102C116.589 71.4656 110.528 77.7713 98.2791 90.0005C78.0875 110.191 78.7255 109.682 74.483 109.682C70.5915 109.682 70.432 109.554 57.7046 96.752C47.1463 86.147 46.285 85.1916 45.7746 83.5993C44.6582 80.1279 45.8065 75.8605 48.486 73.663C51.1973 71.4019 55.3441 70.8923 58.3744 72.421C59.2995 72.8668 62.4574 75.7331 67.1465 80.4146L74.483 87.7075L88.5183 73.6949C96.2376 65.9879 103.096 59.3001 103.766 58.8223C106.254 57.1026 109.89 56.7841 112.761 58.058Z" fill="#058E22"/>
<path d="M89.0469 73.5758L74.793 87.9258L89.143 73.6719C97.0227 65.8242 103.461 59.3859 103.461 59.3539C103.461 59.1297 102.308 60.2828 89.0469 73.5758Z" fill="#410FF6"/>
<path d="M98.3359 90.232L80.8789 107.785L98.432 90.3281C108.073 80.7188 115.953 72.8391 115.953 72.807C115.953 72.5828 114.576 73.9602 98.3359 90.232Z" fill="#410FF6"/>
<path d="M45.5488 80.7187C45.5488 81.3273 45.6129 81.5836 45.709 81.2633C45.773 80.975 45.773 80.4625 45.709 80.1422C45.6129 79.8539 45.5488 80.1101 45.5488 80.7187Z" fill="#410FF6"/>
<path d="M58.1372 97.0547C63.9348 102.852 68.7716 107.625 68.8677 107.625C68.9637 107.625 64.2552 102.852 58.4575 97.0547C52.6598 91.225 47.8231 86.4844 47.727 86.4844C47.6309 86.4844 52.3395 91.225 58.1372 97.0547Z" fill="#410FF6"/>
<path d="M98.1758 90.0719L80.2383 108.105L98.2719 90.168C108.17 80.3023 116.273 72.1984 116.273 72.1664C116.273 71.9422 114.832 73.3516 98.1758 90.0719Z" fill="#535770"/>
<path d="M106.023 58.0407C104.421 58.6493 102.948 60.0266 89.5269 73.3836L74.7925 88.0539L67.105 80.4305C60.4425 73.8321 59.1933 72.743 57.848 72.2946C53.3636 70.7891 48.9433 72.5188 46.7972 76.5868C45.8042 78.5086 45.7402 78.7969 45.8683 81.0391C45.9644 82.4485 46.2527 83.8899 46.573 84.5625C46.8933 85.1711 52.2105 90.7446 58.3925 96.9586C70.7886 109.387 71.0769 109.643 74.7925 109.675C78.5402 109.707 77.6112 110.476 97.9831 90.2C118.579 69.668 118.195 70.1485 118.195 66.3047C118.195 63.6461 117.234 61.5321 115.216 59.6743C112.75 57.4 109.322 56.7914 106.023 58.0407Z" fill="white"/>
</svg>
