<svg width="56" height="56" viewBox="0 0 56 56" fill="none" xmlns="http://www.w3.org/2000/svg">
<rect x="0.411765" y="0.411765" width="55.1765" height="55.1765" rx="12.7647" stroke="#807C7C" stroke-width="0.823529"/>
<path d="M38.7857 35.5714C38.1231 35.5733 37.4774 35.7804 36.9371 36.1641C36.3969 36.5477 35.9887 37.0892 35.7686 37.7142H20.3743C20.2145 37.2659 19.957 36.8588 19.6205 36.5223C19.284 36.1858 18.8768 35.9283 18.4286 35.7685V21.6428C18.4286 18.6889 16.0254 16.2856 13.0714 16.2856C12.7873 16.2856 12.5147 16.3985 12.3138 16.5995C12.1129 16.8004 12 17.0729 12 17.3571C12 17.6412 12.1129 17.9138 12.3138 18.1147C12.5147 18.3156 12.7873 18.4285 13.0714 18.4285C14.8436 18.4285 16.2857 19.8706 16.2857 21.6428V35.7685C15.6607 35.9886 15.1192 36.3968 14.7355 36.9371C14.3519 37.4773 14.1448 38.123 14.1429 38.7856C14.1429 40.5578 15.585 41.9999 17.3571 41.9999C18.0198 41.998 18.6655 41.7909 19.2057 41.4072C19.746 41.0236 20.1542 40.4821 20.3743 39.8571H35.7686C35.9887 40.4821 36.3969 41.0236 36.9371 41.4072C37.4774 41.7909 38.1231 41.998 38.7857 41.9999C40.5579 41.9999 42 40.5578 42 38.7856C42 37.0135 40.5579 35.5714 38.7857 35.5714Z" fill="#313131"/>
<path d="M27.7746 27.0902C27.8625 27.0315 27.9658 27.0002 28.0714 27.0002C28.1771 27.0002 28.2803 27.0315 28.3682 27.0902L29.1429 27.6066V23.7859H27V27.6066L27.7746 27.0902Z" fill="#313131"/>
<path d="M34.5028 23.7857H30.2171V28.6071C30.217 28.704 30.1907 28.7991 30.1409 28.8822C30.0911 28.9654 30.0197 29.0334 29.9342 29.0792C29.8488 29.1249 29.7526 29.1466 29.6558 29.142C29.559 29.1373 29.4653 29.1065 29.3846 29.0529L28.0742 28.1786L26.7639 29.0518C26.6834 29.1062 26.5897 29.1376 26.4927 29.1427C26.3957 29.1477 26.2992 29.1262 26.2136 29.0805C26.1279 29.0347 26.0564 28.9665 26.0066 28.8831C25.9569 28.7996 25.9309 28.7042 25.9314 28.6071V23.7857H21.6456C21.3615 23.7857 21.089 23.8986 20.888 24.0995C20.6871 24.3005 20.5742 24.573 20.5742 24.8571V35.5714C20.5742 35.8556 20.6871 36.1281 20.888 36.329C21.089 36.53 21.3615 36.6429 21.6456 36.6429H34.5028C34.787 36.6429 35.0595 36.53 35.2604 36.329C35.4613 36.1281 35.5742 35.8556 35.5742 35.5714V24.8571C35.5742 24.573 35.4613 24.3005 35.2604 24.0995C35.0595 23.8986 34.787 23.7857 34.5028 23.7857ZM27.7774 14.2329C27.8653 14.1742 27.9686 14.1429 28.0742 14.1429C28.1799 14.1429 28.2831 14.1742 28.371 14.2329L29.1456 14.7493V12H27.0028V14.7493L27.7774 14.2329Z" fill="#313131"/>
<path d="M33.4302 12H30.216V15.75C30.2159 15.8469 30.1896 15.942 30.1398 16.0251C30.09 16.1082 30.0185 16.1763 29.9331 16.222C29.8477 16.2677 29.7514 16.2895 29.6546 16.2848C29.5579 16.2802 29.4641 16.2494 29.3835 16.1957L28.0731 15.3214L26.7627 16.1946C26.6823 16.249 26.5886 16.2805 26.4916 16.2855C26.3946 16.2906 26.2981 16.2691 26.2124 16.2233C26.1268 16.1776 26.0552 16.1093 26.0055 16.0259C25.9558 15.9425 25.9298 15.8471 25.9302 15.75V12H22.716C22.4318 12 22.1593 12.1129 21.9583 12.3138C21.7574 12.5147 21.6445 12.7873 21.6445 13.0714V21.6429C21.6445 21.927 21.7574 22.1995 21.9583 22.4005C22.1593 22.6014 22.4318 22.7143 22.716 22.7143H33.4302C33.7144 22.7143 33.9869 22.6014 34.1879 22.4005C34.3888 22.1995 34.5017 21.927 34.5017 21.6429V13.0714C34.5017 12.7873 34.3888 12.5147 34.1879 12.3138C33.9869 12.1129 33.7144 12 33.4302 12Z" fill="#313131"/>
</svg>
