<svg width="40" height="40" viewBox="0 0 40 40" fill="none" xmlns="http://www.w3.org/2000/svg">
<rect width="40" height="40" fill="#1E1E1E"/>
<g clip-path="url(#clip0_0_1)">
<rect width="1920" height="4605" transform="translate(-1113 -2057)" fill="white"/>
<rect width="1920" height="526" transform="translate(-1113 -295)" fill="#FDF0F6"/>
<rect x="-146.5" y="-34.5" width="335" height="179" rx="11.5" stroke="#CACACA"/>
<rect x="-6.58824" y="-6.58824" width="55.1765" height="55.1765" rx="12.7647" stroke="#807C7C" stroke-width="0.823529"/>
<path fill-rule="evenodd" clip-rule="evenodd" d="M21.7048 8.12245C23.1187 8.45925 24.4698 9.01937 25.7072 9.78173L28.308 8.62668L31.3734 11.6919L30.2186 14.2919C30.9813 15.5296 31.5415 16.8811 31.8782 18.2953L34.5316 19.3167V23.6517L31.8775 24.6732C31.5408 26.0871 30.9806 27.4382 30.2183 28.6757L31.3733 31.2765L28.308 34.3418L25.7081 33.187C24.4704 33.9496 23.1189 34.5098 21.7046 34.8466L20.6832 37.5H16.3483L15.3267 34.8459C13.9128 34.5091 12.5617 33.949 11.3243 33.1866L8.72346 34.3418L5.65824 31.2765L6.81301 28.6765C6.05045 27.4388 5.49023 26.0873 5.15345 24.6731L2.5 23.6517V19.3168L5.1538 18.2953C5.49059 16.8813 6.05077 15.5301 6.81322 14.2925L5.65824 11.692L8.72353 8.62668L11.3243 9.78173C12.5618 9.01938 13.9129 8.45926 15.3267 8.12245L16.3483 5.46843H20.6832L21.7048 8.12245ZM31.853 8.14691C31.5318 7.82566 31.0109 7.82566 30.6896 8.14691C30.3684 8.46816 30.3684 8.98903 30.6896 9.31028C31.0109 9.63154 31.5318 9.63154 31.853 9.31028C32.1743 8.98903 32.1743 8.46816 31.853 8.14691ZM31.082 7.02313C32.1741 6.97386 33.027 7.80342 32.9767 8.91795C32.972 9.06842 33.0269 9.21468 33.1293 9.32501C33.2317 9.43534 33.3735 9.50086 33.5239 9.50735C33.6743 9.51384 33.8212 9.46079 33.9328 9.3597C34.0443 9.2586 34.1116 9.11761 34.1199 8.9673C34.2 7.18996 32.81 5.79994 31.0326 5.88006C30.8828 5.889 30.7425 5.95647 30.6419 6.06793C30.5413 6.17938 30.4886 6.32589 30.4951 6.47587C30.5016 6.62584 30.5667 6.76726 30.6765 6.86964C30.7863 6.97201 30.9319 7.02714 31.082 7.02313ZM35.8066 8.89112C35.9288 6.18238 33.8175 4.07117 31.1088 4.19332C30.9585 4.20162 30.8175 4.26884 30.7164 4.38039C30.6153 4.49195 30.5623 4.63886 30.5688 4.78927C30.5752 4.93967 30.6408 5.08146 30.7511 5.18389C30.8614 5.28632 31.0077 5.34114 31.1582 5.33646C33.1942 5.24465 34.7553 6.80581 34.6635 8.84185C34.659 8.91765 34.6696 8.99359 34.6947 9.06525C34.7199 9.13691 34.759 9.20285 34.8099 9.25923C34.8607 9.31561 34.9223 9.36131 34.991 9.39364C35.0597 9.42598 35.1342 9.44432 35.21 9.44759C35.2859 9.45086 35.3616 9.439 35.4329 9.41269C35.5041 9.38639 35.5694 9.34616 35.6249 9.29437C35.6805 9.24257 35.7251 9.18024 35.7563 9.11101C35.7875 9.04178 35.8046 8.96703 35.8066 8.89112ZM31.2342 3.64986C34.2019 3.51609 36.4838 5.79801 36.3501 8.76575C36.3454 8.91623 36.4002 9.06248 36.5026 9.17281C36.6051 9.28315 36.7469 9.34866 36.8973 9.35515C37.0477 9.36164 37.1946 9.30859 37.3061 9.2075C37.4177 9.1064 37.4849 8.96542 37.4932 8.8151C37.6573 5.17472 34.8253 2.34268 31.1849 2.50679C31.0351 2.51574 30.8948 2.58321 30.7942 2.69466C30.6937 2.8061 30.641 2.9526 30.6474 3.10255C30.6539 3.25251 30.719 3.39392 30.8288 3.4963C30.9385 3.59869 31.0841 3.65383 31.2342 3.64986ZM24.3674 16.9561L24.9531 15.9416C25.0265 15.8103 25.0453 15.6554 25.0052 15.5104C24.9651 15.3655 24.8695 15.2422 24.7391 15.1672C24.6087 15.0923 24.4541 15.0718 24.3086 15.1102C24.1632 15.1486 24.0388 15.2428 23.9624 15.3723L23.3766 16.3868C23.3032 16.5181 23.2845 16.673 23.3246 16.818C23.3646 16.9629 23.4602 17.0862 23.5906 17.1612C23.721 17.2361 23.8757 17.2566 24.0211 17.2182C24.1665 17.1798 24.2909 17.0856 24.3674 16.9561ZM25.4071 19.4209L26.5387 19.1177C26.6122 19.099 26.6814 19.066 26.7421 19.0204C26.8027 18.9749 26.8538 18.9177 26.8922 18.8522C26.9306 18.7868 26.9557 18.7144 26.9659 18.6392C26.9761 18.564 26.9712 18.4875 26.9516 18.4142C26.932 18.3409 26.8981 18.2722 26.8517 18.2121C26.8054 18.152 26.7476 18.1017 26.6816 18.0642C26.6157 18.0266 26.5429 18.0025 26.4676 17.9933C26.3923 17.9841 26.3159 17.9899 26.2428 18.0105L25.1112 18.3137C25.0376 18.3323 24.9685 18.3654 24.9078 18.411C24.8471 18.4565 24.7961 18.5137 24.7577 18.5791C24.7193 18.6446 24.6942 18.717 24.684 18.7922C24.6738 18.8674 24.6786 18.9439 24.6982 19.0172C24.7178 19.0905 24.7518 19.1592 24.7981 19.2193C24.8445 19.2794 24.9023 19.3297 24.9683 19.3672C25.0342 19.4048 25.107 19.4289 25.1823 19.4381C25.2576 19.4473 25.334 19.4415 25.4071 19.4209ZM24.7512 21.9423L25.7658 22.5281C25.8971 22.6028 26.0526 22.6227 26.1984 22.5832C26.3443 22.5438 26.4686 22.4483 26.5443 22.3175C26.62 22.1868 26.641 22.0314 26.6027 21.8853C26.5643 21.7392 26.4697 21.6141 26.3396 21.5374L25.325 20.9517C25.1936 20.8756 25.0374 20.8548 24.8907 20.8939C24.744 20.933 24.6189 21.0287 24.5428 21.1601C24.5051 21.2251 24.4806 21.297 24.4707 21.3715C24.4607 21.446 24.4656 21.5217 24.4849 21.5944C24.5043 21.667 24.5378 21.7351 24.5834 21.7948C24.6291 21.8545 24.6861 21.9046 24.7512 21.9423ZM14.8028 19.1834L12.3973 19.828C11.1381 20.1653 10.384 21.4715 10.7214 22.7305C11.0588 23.9896 12.365 24.7437 13.624 24.4063L16.0295 23.7618L14.8028 19.1834ZM20.9309 15.4014C20.788 14.868 20.1276 14.687 19.7327 15.0731C19.5033 15.2973 19.2684 15.5327 19.0274 15.7737L21.3579 24.4714C21.6707 24.5635 21.9827 24.6584 22.2938 24.7561C22.8368 24.9258 23.3507 24.4324 23.2036 23.883L20.9309 15.4014ZM15.8289 18.5792L17.2067 23.7214C18.1876 23.745 19.1445 23.9043 20.0777 24.1276L18.0874 16.6998C17.3883 17.3707 16.6392 18.0333 15.8289 18.5792ZM17.1489 27.9394L16.3265 24.8703L14.6282 25.3254L15.1135 27.1365C15.2991 27.8293 16.0157 28.243 16.7085 28.0574L17.1489 27.9394ZM22.9648 18.558L23.4268 20.2823C23.7067 19.6716 23.5125 18.9469 22.9648 18.558ZM18.5158 11.4835C12.9926 11.4835 8.51517 15.9609 8.51517 21.4841C8.51517 27.0074 12.9926 31.4848 18.5158 31.4848C24.039 31.4848 28.5165 27.0073 28.5165 21.4841C28.5164 15.9609 24.039 11.4835 18.5158 11.4835Z" fill="#313131"/>
</g>
<defs>
<clipPath id="clip0_0_1">
<rect width="1920" height="4605" fill="white" transform="translate(-1113 -2057)"/>
</clipPath>
</defs>
</svg>
