<svg width="40" height="40" viewBox="0 0 40 40" fill="none" xmlns="http://www.w3.org/2000/svg">
<path d="M31.7857 28.5714C31.1231 28.5733 30.4774 28.7804 29.9371 29.1641C29.3969 29.5477 28.9887 30.0892 28.7686 30.7142H13.3743C13.2145 30.2659 12.957 29.8588 12.6205 29.5223C12.284 29.1858 11.8768 28.9283 11.4286 28.7685V14.6428C11.4286 11.6889 9.02536 9.28564 6.07143 9.28564C5.78727 9.28564 5.51475 9.39853 5.31381 9.59946C5.11288 9.80039 5 10.0729 5 10.3571C5 10.6412 5.11288 10.9138 5.31381 11.1147C5.51475 11.3156 5.78727 11.4285 6.07143 11.4285C7.84357 11.4285 9.28572 12.8706 9.28572 14.6428V28.7685C8.66074 28.9886 8.11923 29.3968 7.73555 29.9371C7.35187 30.4773 7.14483 31.123 7.14286 31.7856C7.14286 33.5578 8.585 34.9999 10.3571 34.9999C11.0198 34.998 11.6655 34.7909 12.2057 34.4072C12.746 34.0236 13.1542 33.4821 13.3743 32.8571H28.7686C28.9887 33.4821 29.3969 34.0236 29.9371 34.4072C30.4774 34.7909 31.1231 34.998 31.7857 34.9999C33.5579 34.9999 35 33.5578 35 31.7856C35 30.0135 33.5579 28.5714 31.7857 28.5714Z" fill="#313131"/>
<path d="M20.7746 20.0902C20.8625 20.0315 20.9658 20.0002 21.0714 20.0002C21.1771 20.0002 21.2803 20.0315 21.3682 20.0902L22.1429 20.6066V16.7859H20V20.6066L20.7746 20.0902Z" fill="#313131"/>
<path d="M27.5028 16.7857H23.2171V21.6071C23.217 21.704 23.1907 21.7991 23.1409 21.8822C23.0911 21.9654 23.0197 22.0334 22.9342 22.0792C22.8488 22.1249 22.7526 22.1466 22.6558 22.142C22.559 22.1373 22.4653 22.1065 22.3846 22.0529L21.0742 21.1786L19.7639 22.0518C19.6834 22.1062 19.5897 22.1376 19.4927 22.1427C19.3957 22.1477 19.2992 22.1262 19.2136 22.0805C19.1279 22.0347 19.0564 21.9665 19.0066 21.8831C18.9569 21.7996 18.9309 21.7042 18.9314 21.6071V16.7857H14.6456C14.3615 16.7857 14.089 16.8986 13.888 17.0995C13.6871 17.3005 13.5742 17.573 13.5742 17.8571V28.5714C13.5742 28.8556 13.6871 29.1281 13.888 29.329C14.089 29.53 14.3615 29.6429 14.6456 29.6429H27.5028C27.787 29.6429 28.0595 29.53 28.2604 29.329C28.4613 29.1281 28.5742 28.8556 28.5742 28.5714V17.8571C28.5742 17.573 28.4613 17.3005 28.2604 17.0995C28.0595 16.8986 27.787 16.7857 27.5028 16.7857ZM20.7774 7.23286C20.8653 7.17421 20.9686 7.14292 21.0742 7.14292C21.1799 7.14292 21.2831 7.17421 21.371 7.23286L22.1456 7.74929V5H20.0028V7.74929L20.7774 7.23286Z" fill="#313131"/>
<path d="M26.4302 5H23.216V8.75C23.2159 8.8469 23.1896 8.94198 23.1398 9.0251C23.09 9.10822 23.0185 9.17627 22.9331 9.22201C22.8477 9.26775 22.7514 9.28946 22.6546 9.28483C22.5579 9.2802 22.4641 9.2494 22.3835 9.19571L21.0731 8.32143L19.7627 9.19464C19.6823 9.24905 19.5886 9.28047 19.4916 9.28552C19.3946 9.29058 19.2981 9.26907 19.2124 9.22332C19.1268 9.17757 19.0552 9.10932 19.0055 9.02591C18.9558 8.9425 18.9298 8.84711 18.9302 8.75V5H15.716C15.4318 5 15.1593 5.11288 14.9583 5.31381C14.7574 5.51475 14.6445 5.78727 14.6445 6.07143V14.6429C14.6445 14.927 14.7574 15.1995 14.9583 15.4005C15.1593 15.6014 15.4318 15.7143 15.716 15.7143H26.4302C26.7144 15.7143 26.9869 15.6014 27.1879 15.4005C27.3888 15.1995 27.5017 14.927 27.5017 14.6429V6.07143C27.5017 5.78727 27.3888 5.51475 27.1879 5.31381C26.9869 5.11288 26.7144 5 26.4302 5Z" fill="#313131"/>
</svg>
